<svg width="279" height="75" viewBox="0 0 279 75" fill="none" xmlns="http://www.w3.org/2000/svg">
<path d="M266.591 75.0066C261.353 75.0066 257.023 74.2034 253.601 72.5971C250.248 70.9909 247.734 68.5814 246.058 65.3688C244.382 62.0864 243.544 58.0009 243.544 53.1122V36.0366H239.982C237.747 36.0366 236.001 35.443 234.744 34.2557C233.557 33.0685 232.963 31.3574 232.963 29.1226C232.963 26.8878 233.557 25.2116 234.744 24.0942C236.001 22.907 237.747 22.3133 239.982 22.3133H243.544V15.8184C243.544 12.7455 244.347 10.4059 245.953 8.79957C247.56 7.19328 249.864 6.39014 252.867 6.39014C255.87 6.39014 258.175 7.19328 259.781 8.79957C261.388 10.4059 262.191 12.7455 262.191 15.8184V22.3133H270.781C273.086 22.3133 274.832 22.907 276.019 24.0942C277.276 25.2116 277.905 26.8878 277.905 29.1226C277.905 31.3574 277.276 33.0685 276.019 34.2557C274.832 35.443 273.086 36.0366 270.781 36.0366H262.191V52.4836C262.191 55.0677 262.784 56.9882 263.972 58.2453C265.229 59.4326 267.184 60.0262 269.838 60.0262C270.816 60.0262 271.759 59.9214 272.667 59.7119C273.575 59.5024 274.413 59.3976 275.181 59.3976C276.298 59.3278 277.206 59.677 277.905 60.4452C278.603 61.1436 278.952 62.7848 278.952 65.3688C278.952 67.464 278.638 69.2449 278.009 70.7115C277.381 72.1083 276.263 73.1209 274.657 73.7495C273.679 74.0987 272.352 74.378 270.676 74.5875C269 74.8669 267.638 75.0066 266.591 75.0066Z" fill="#52B788"/>
<path d="M185.252 74.7972C182.318 74.7972 180.049 73.994 178.442 72.3878C176.836 70.7815 176.033 68.4419 176.033 65.369V30.6941C176.033 27.691 176.801 25.3864 178.338 23.7801C179.944 22.1738 182.214 21.3706 185.147 21.3706C188.08 21.3706 190.315 22.1738 191.851 23.7801C193.388 25.3864 194.156 27.691 194.156 30.6941V35.6177L193.004 31.3227C194.68 28.0402 197.054 25.526 200.127 23.7801C203.27 22.0341 206.832 21.1611 210.813 21.1611C214.933 21.1611 218.32 21.9643 220.974 23.5706C223.628 25.107 225.618 27.5514 226.945 30.9036C228.272 34.186 228.936 38.3414 228.936 43.3698V65.369C228.936 68.4419 228.133 70.7815 226.526 72.3878C224.92 73.994 222.615 74.7972 219.612 74.7972C216.609 74.7972 214.305 73.994 212.698 72.3878C211.092 70.7815 210.289 68.4419 210.289 65.369V44.1031C210.289 40.9604 209.73 38.7255 208.613 37.3986C207.565 36.0717 205.994 35.4082 203.899 35.4082C201.105 35.4082 198.87 36.3161 197.194 38.1319C195.518 39.8779 194.68 42.2524 194.68 45.2555V65.369C194.68 71.6545 191.537 74.7972 185.252 74.7972Z" fill="#52B788"/>
<path d="M146 75.0067C139.715 75.0067 134.267 73.9242 129.658 71.7592C125.119 69.5244 121.627 66.3816 119.182 62.331C116.738 58.2804 115.516 53.4964 115.516 47.9792C115.516 42.6714 116.668 38.0272 118.973 34.0464C121.347 29.9957 124.56 26.853 128.61 24.6181C132.731 22.3135 137.41 21.1611 142.648 21.1611C146.489 21.1611 149.981 21.7897 153.124 23.0468C156.267 24.234 158.955 26.0149 161.19 28.3894C163.425 30.6941 165.101 33.4876 166.219 36.7701C167.406 40.0525 167.999 43.719 167.999 47.7696C167.999 49.1664 167.615 50.214 166.847 50.9124C166.079 51.5409 164.857 51.8552 163.181 51.8552H131.125V43.0555H154.381L152.705 44.4174C152.705 41.8334 152.356 39.7382 151.657 38.1319C150.959 36.5256 149.911 35.3035 148.514 34.4654C147.188 33.6273 145.511 33.2083 143.486 33.2083C141.321 33.2083 139.435 33.7321 137.829 34.7797C136.293 35.7574 135.105 37.224 134.267 39.1795C133.429 41.135 133.01 43.5793 133.01 46.5126V47.4554C133.01 52.4139 134.093 55.9757 136.258 58.1407C138.493 60.2358 141.915 61.2834 146.524 61.2834C148.061 61.2834 149.807 61.1088 151.762 60.7596C153.787 60.3406 155.708 59.7819 157.524 59.0835C159.339 58.3851 160.911 58.2804 162.238 58.7692C163.565 59.1883 164.577 59.9565 165.276 61.0739C166.044 62.1215 166.463 63.3437 166.533 64.7404C166.603 66.0674 166.288 67.3943 165.59 68.7212C164.892 69.9783 163.739 70.9561 162.133 71.6545C159.689 72.7719 157.07 73.6099 154.276 74.1686C151.552 74.7274 148.794 75.0067 146 75.0067Z" fill="#52B788"/>
<path d="M85.3146 74.7971C82.8703 74.7971 80.7751 74.2035 79.0292 73.0163C77.353 71.7592 75.9563 69.9084 74.8389 67.4641L59.8585 33.2083C59.0204 31.1131 58.7411 29.1576 59.0204 27.3418C59.2998 25.526 60.1727 24.0943 61.6394 23.0467C63.1758 21.9293 65.271 21.3706 67.9248 21.3706C70.1597 21.3706 71.9405 21.8944 73.2675 22.942C74.6643 23.9197 75.9214 25.8752 77.0388 28.8084L87.6193 56.0455H84.0576L95.1619 28.7037C96.2793 25.8403 97.5364 23.9197 98.9332 22.942C100.33 21.8944 102.251 21.3706 104.695 21.3706C106.79 21.3706 108.466 21.9293 109.723 23.0467C111.05 24.0943 111.853 25.526 112.133 27.3418C112.412 29.1576 112.063 31.1131 111.085 33.2083L95.7904 67.5688C94.7429 70.0132 93.3461 71.829 91.6001 73.0163C89.924 74.2035 87.8288 74.7971 85.3146 74.7971Z" fill="#52B788"/>
<path d="M10.0568 73.8543C6.77435 73.8543 4.26016 73.0163 2.51419 71.3402C0.838064 69.5942 0 67.1149 0 63.9023V9.95201C0 6.73943 0.838064 4.29508 2.51419 2.61895C4.26016 0.872984 6.77435 0 10.0568 0H45.5697C48.0839 0 49.9695 0.628548 51.2266 1.88564C52.4837 3.14274 53.1123 4.95854 53.1123 7.33305C53.1123 9.77741 52.4837 11.6631 51.2266 12.99C49.9695 14.2471 48.0839 14.8756 45.5697 14.8756H18.4374V28.9132H43.265C45.7094 28.9132 47.5601 29.5417 48.8172 30.7988C50.1441 32.0559 50.8076 33.9067 50.8076 36.351C50.8076 38.7954 50.1441 40.6461 48.8172 41.9032C47.5601 43.1603 45.7094 43.7888 43.265 43.7888H18.4374V58.9787H45.5697C48.0839 58.9787 49.9695 59.6422 51.2266 60.9691C52.4837 62.2262 53.1123 64.042 53.1123 66.4165C53.1123 68.8609 52.4837 70.7116 51.2266 71.9687C49.9695 73.2258 48.0839 73.8543 45.5697 73.8543H10.0568Z" fill="#52B788"/>
</svg>
